classDiagram
    Rules <|-- AveryLongClass : Cool
    Class03 *-- Class04
    Class05 o-- Class06
    Class07 .. Class08
    Class09 --> C2 : Where am i?
    Class09 --* C3
    Class09 --|> Class07
    Class07 : equals()
    Class07 : Object[] elementData
    Rules : size()
    Rules : int chimp!
    Rules : int gorilla
    Class08 <--> C2: Cool label